<svg xmlns="http://www.w3.org/2000/svg" viewBox="0 198.427 368.5 56.693">
    <g>
        <path fill="#343A40" d="M11.135,210.634v-10.758H-0.002v43.01h44.677v-32.252H11.135L11.135,210.634z M11.135,232.126v-10.759 h22.352v10.759H11.135z M66.517,210.634v10.733h-11.19v21.519h44.68v-32.252H66.517L66.517,210.634z M66.517,221.368h22.325v10.759 H66.517V221.368z M121.792,199.876h-11.135v10.758h11.135V199.876z M121.792,221.368h-11.135v21.519h11.135V221.368z  M132.498,210.634v32.252h22.326l-4.922,10.785h11.136l4.948-10.785h11.191v-32.252H132.498z M143.633,232.126v-10.759h22.352 v10.759H143.633z M187.881,210.634v32.252h44.623v-32.252H187.881z M199.018,232.126v-10.759h22.325v10.759H199.018z"/>
        <g>
            <path fill="#343A40" d="M272.234,225.539l4.034-12.615c0.779-4.01,1.454-6.915,2.073-9.712h0.131 c0.62,2.743,1.214,5.543,2.128,8.663l4.061,13.664H272.234z M285.764,228.013l4.384,14.148h5.703l-14.068-42.096h-6.429 l-14.013,42.096h5.513l4.278-14.148H285.764L285.764,228.013z"/>
            <path fill="#343A40" d="M307.47,203.806c1.451-0.326,3.579-0.595,6.43-0.595c11.592,0,17.24,6.62,17.188,17.054 c0,11.943-6.374,18.748-18.075,18.748c-2.151,0-4.143-0.055-5.542-0.322V203.806L307.47,203.806z M302.008,241.22 c2.773,0.16,6.025,0.268,9.929,0.268c8.256,0,14.794-1.184,18.774-4.248c3.791-4.062,5.808-9.955,5.808-17.164 c0-7.152-2.071-12.262-5.673-15.869c-3.74-2.445-9.337-3.471-17.217-3.471c-4.33,0-8.284,0.217-11.621,0.484V241.22 L302.008,241.22z"/>
            <path fill="#343A40" d="M341.819,240.007c2.258,0.834,6.672,1.48,11.137,1.48c10.839,0,15.546-3.629,15.546-10.408 c0-6.43-3.55-10.006-11.138-12.859c-6.398-2.337-9.199-4.354-9.199-8.443c0-3.014,2.396-6.564,8.716-6.564 c4.173,0,7.155,1.292,8.5,2.07l1.481-3.415c-1.857-0.592-5.032-1.13-9.792-1.13c-8.983,0-14.364,2.854-14.364,9.684 c0,6.16,4.226,9.871,11.623,12.4c6.267,2.288,8.714,4.623,8.714,8.715c0,4.436-3.551,7.479-9.658,7.479 c-4.116,0-7.772-1.293-10.195-2.852L341.819,240.007z"/>
        </g>
    </g>
</svg>
